REM DIRINDEX 1\2,1\3
REM DIRNAME folder01,folder02,folder03
TITLE ""
FILE "Track03.mp3" MP3
  TRACK 01 AUDIO
    TITLE "0:"
    INDEX 01 00:00:00
  TRACK 02 AUDIO
    TITLE "3:cjc140_005"
    INDEX 01 00:00:11
  TRACK 03 AUDIO
    TITLE "2:cjc140_006"
    INDEX 01 00:01:62
  TRACK 04 AUDIO
    TITLE "2:cjc140_007"
    INDEX 01 00:07:29
  TRACK 05 AUDIO
    TITLE "2:cjc140_008"
    INDEX 01 00:14:68
  TRACK 06 AUDIO
    TITLE "0:"
    INDEX 01 00:22:44
